<svg xmlns="http://www.w3.org/2000/svg" xmlns:xlink="http://www.w3.org/1999/xlink" viewBox="0 0 260 260"><defs><style>.cls-1{fill:#f6f7f8;}.cls-2{fill:url(#linear-gradient);}.cls-3{fill:#fff;}.cls-4{fill:#17193c;}.cls-5{fill:url(#linear-gradient-2);}.cls-6{fill:url(#linear-gradient-3);}</style><linearGradient id="linear-gradient" x1="-7956.12" y1="170.15" x2="-7867.57" y2="170.15" gradientTransform="matrix(-1, 0, 0, 1, -7743.12, 0)" gradientUnits="userSpaceOnUse"><stop offset="0" stop-color="#17193c"/><stop offset="1" stop-color="#2a2d65"/></linearGradient><linearGradient id="linear-gradient-2" x1="2079" y1="175.2" x2="1967.09" y2="175.2" gradientTransform="translate(-1919)" gradientUnits="userSpaceOnUse"><stop offset="0" stop-color="#009fe5"/><stop offset="1" stop-color="#0039ba"/></linearGradient><linearGradient id="linear-gradient-3" x1="2014.33" y1="48.81" x2="2014.33" y2="160.16" gradientTransform="translate(-1919)" xlink:href="#linear-gradient"/></defs><title>icon-everyone</title><g id="Layer_2" data-name="Layer 2"><g id="Trash_Can" data-name="Trash Can"><rect class="cls-1" width="260" height="260" rx="130" ry="130"/><path class="cls-2" d="M158.74,139.52a66.11,66.11,0,0,1,19.4,0c3.69.74,34.86,14.94,34.86,29.67v29.09a3.33,3.33,0,0,1-3.44,3.21H124.45v-32.3c0-16.18,16.56-22.11,20.77-24.47A45.56,45.56,0,0,1,158.74,139.52Z"/><path class="cls-3" d="M170.92,143.63"/><path class="cls-4" d="M190.72,100s2-10.81-5.09-17.69c-8.57-8.28-25.94-8.31-34.55,0C144,89.21,146,100,146,100s-8.49,15.52-6.1,23.59c2,6.88,9.15,10.81,14.24,10.81h3.42a34,34,0,0,1-.43,5.07c-2.48,1.61-5.28,5.13-4.26,9.2,1.79,7.14,14.52,16.27,15.46,16.27s13.28-9.31,15-16.27c1-4.07-1.78-7.68-3.6-9.2a18.05,18.05,0,0,1-.78-5.07h3.62c5.09,0,12.21-3.93,14.24-10.81C199.21,115.54,190.72,100,190.72,100Z"/><path class="cls-5" d="M119.07,139.9H89c-3.36,1.11-8.26,2.8-14.07,5.09s-10.07,4-12.74,5.49-8.07,5.36-11.64,15a41.33,41.33,0,0,0-2.48,14.38v26a4.88,4.88,0,0,0,5.09,4.64H155.61a4.21,4.21,0,0,0,4.39-4V179.88a41.49,41.49,0,0,0-2.47-14.36c-3.57-9.69-8.89-13.49-11.65-15-3-1.7-8.33-3.73-15.94-6.63C125.4,142.11,121.62,140.78,119.07,139.9Z"/><path class="cls-6" d="M136,74c-5-7.08-9-12-14-11-3.28-8.64-9.08-11-11.46-12.08C97,44.89,78.19,52.46,72,65c-4.62,9.35-4.39,16.19-9.56,22.22-4.15,4.84-11.53,4.19-11.53,4.19A20.74,20.74,0,0,0,62,102a51.77,51.77,0,0,0,13.55,2.66C76,110,80,126,90.81,130.87a20.56,20.56,0,0,1-1.11,10.24c-1.2,2.87-3.81,4.48-3.81,7.19,0,6.55,8.29,11.86,18.53,11.86s18.53-5.31,18.53-11.86c0-2.83-1.56-5.43-4.14-7.47a22,22,0,0,1-1-10h0c8.15-3.69,12.82-15.75,14.11-30.33C139.36,98.76,143,84,136,74Z"/></g></g></svg>