<svg xmlns="http://www.w3.org/2000/svg" xmlns:xlink="http://www.w3.org/1999/xlink" viewBox="0 0 260 260"><defs><style>.cls-1{fill:#f6f7f8;}.cls-2{fill:url(#linear-gradient);}.cls-3{fill:url(#linear-gradient-2);}.cls-4{fill:#e2263c;}.cls-5{opacity:0.4;fill:url(#linear-gradient-3);}.cls-6{fill:#17193c;}</style><linearGradient id="linear-gradient" x1="693" y1="782" x2="871" y2="782" gradientTransform="translate(912 -652) rotate(90)" gradientUnits="userSpaceOnUse"><stop offset="0" stop-color="#17193c"/><stop offset="1" stop-color="#2a2d65"/></linearGradient><linearGradient id="linear-gradient-2" x1="131.95" y1="181.02" x2="115.76" y2="78.82" gradientUnits="userSpaceOnUse"><stop offset="0" stop-color="#facf5a"/><stop offset="1" stop-color="#f79857"/></linearGradient><linearGradient id="linear-gradient-3" x1="133.91" y1="168.92" x2="133.91" y2="122.99" gradientUnits="userSpaceOnUse"><stop offset="0" stop-color="#facf5a"/><stop offset="1" stop-color="#f73d57"/></linearGradient></defs><title>icon-data</title><g id="Layer_2" data-name="Layer 2"><g id="Iconography"><rect class="cls-1" width="260" height="260" rx="130" ry="130"/><polygon class="cls-2" points="212.5 174.5 212.5 85.5 130 41 47.5 85.5 47.5 174.5 130 219 212.5 174.5"/><path class="cls-3" d="M208.34,168.87c-14.08-3.67-12.93-20.82-26.53-26.51-10.05-4.21-20.63,2.15-30.72,3-10.7.88-22.68-2.81-28.73-15.11-4.54-9.22-6.55-19.55-9.29-29.76-2.09-7.77-4.72-20.18-13.7-19.05-4.27.54-7.66,4.88-10,8.56a56.41,56.41,0,0,0-5.92,13.42c-4.14,13.16-6,27.07-10.54,40.07-4.35,12.36-9.48,21.17-21.2,25.45H208.34Z"/><path class="cls-4" d="M51.66,168.92H203.16c-10.73-.77-19.23-4.4-24.79-8.6a62.07,62.07,0,0,1-7-6.32c-6.37-6.69-11-14.63-15.34-23.05-2.93-5.74-6-11.91-11.69-14.7-7.27-3.58-15.05-1.14-21.31,3.63S111.7,131,106.67,137.19c-5.36,6.56-10.69,13.28-17,18.72Q88.39,157,87.07,158a73.52,73.52,0,0,1-7.59,5,61.21,61.21,0,0,1-14.83,5.92"/><path class="cls-5" d="M171.34,154a73.55,73.55,0,0,1-8.6-11.12,69.69,69.69,0,0,1-11.65,2.45c-10.7.88-22.68-2.81-28.73-15.1a68.47,68.47,0,0,1-3-7.24,136.07,136.07,0,0,0-12.67,14.2c-5.36,6.56-10.69,13.28-17,18.72Q88.39,157,87.07,158a73.52,73.52,0,0,1-7.59,5,61.21,61.21,0,0,1-14.83,5.92H203.16c-10.73-.77-19.23-4.4-24.79-8.6A62.07,62.07,0,0,1,171.34,154Z"/><polygon class="cls-6" points="208.53 172 54.53 172 51.53 169 208.53 169 208.53 172"/></g></g></svg>