<svg xmlns="http://www.w3.org/2000/svg" width="206" height="37" viewBox="0 0 206 37">
    <path fill="#2B7DE1" fill-rule="evenodd" d="M15.958.114H.091v28.725H0c.023 4.331 3.442 7.637 7.66 7.637 4.217 0 7.637-3.306 7.66-7.637h.045v-1.14c.228.023.388.023.616.023 7.614 0 13.792-6.179 13.792-13.793 0-7.637-6.2-13.815-13.815-13.815zM38.847 36.59c4.217 0 7.637-3.42 7.66-7.751h.09V7.637h-.09C46.484 3.534 43.064 0 38.847 0c-4.218 0-7.637 3.534-7.66 7.637h-.091V28.84h.09c.024 4.331 3.443 7.75 7.66 7.75zm17.143 0c4.218 0 7.706-3.443 7.706-7.66V28.2l6.11 6.11a7.602 7.602 0 0 0 10.76-.023c2.986-2.986 2.94-7.82-.023-10.806l.023-.023h.023l-5.107-5.106 5.152-5.152A7.657 7.657 0 0 0 69.805 2.37l-.022.024-4.104 4.08-2.006 1.984V.114H48.399v28.725h-.023c.023 4.331 3.442 7.75 7.66 7.75h-.114.068zm144.33-7.295c.25-.456.41-.867.41-1.391 0-.82-.319-1.573-.934-2.006-.388-.297-1.072-.479-2.212-.479h-2.325v7.295h1.596v-5.927h.843c.41 0 .776.023 1.05.205.318.182.523.616.523 1.049 0 .456-.182.798-.478 1.026-.32.25-.844.228-1.323.228h-.296l1.983 3.42h1.55l-1.64-2.69c.524-.115.934-.274 1.253-.73zm-2.44-7.752c-4.308 0-7.5 3.488-7.5 7.524 0 4.217 3.306 7.5 7.478 7.5 4.104 0 7.432-3.328 7.432-7.5-.023-4.081-3.237-7.524-7.41-7.524zm-.022 13.998c-3.534 0-6.338-2.85-6.338-6.429 0-3.488 2.713-6.429 6.315-6.429h.023c3.602 0 6.27 2.941 6.27 6.43.022 3.578-2.805 6.405-6.293 6.382l.023.046zM100.491.114H84.464v28.953h.069c.022 4.103 3.442 7.637 7.66 7.637 4.217 0 7.637-3.534 7.66-7.637h.113v-1.323c0 .023.365.023.57.023 7.615 0 13.77-6.2 13.77-13.838 0-7.591-6.201-13.815-13.815-13.815zm33.193.068c-10.031 0-18.17 8.139-18.17 18.193 0 10.053 8.162 18.215 18.238 18.192 10.054 0 18.17-8.139 18.17-18.192 0-10.054-8.208-18.193-18.238-18.193zM174.9 2.394l-4.103 4.126-2.007 1.983V.114h-15.274v28.953c.023 4.103 3.443 7.637 7.66 7.637 4.218 0 7.637-3.534 7.66-7.637h-.046v-.798l6.133 6.11h.023c2.986 2.963 7.888 2.963 10.874-.023 2.986-2.987 3.055-7.82.091-10.806l-.068-.023h-.046l-4.103-4.08-.98-1.027 5.197-5.152c2.964-2.986 2.713-8.39-.182-10.851-2.895-2.463-7.82-2.987-10.829-.023z"/>
</svg>
