<svg xmlns="http://www.w3.org/2000/svg" viewBox="0 0 1706 986"><defs><style>.cls-1,.cls-2,.cls-3,.cls-4,.cls-5,.cls-6{fill:#fff;}.cls-1{opacity:0.1;}.cls-2{opacity:0.4;}.cls-3{opacity:0.25;}.cls-4{opacity:0.3;}.cls-5{opacity:0.2;}.cls-6{opacity:0.5;}</style></defs><title>PrismaTile</title><g id="Layer_5" data-name="Layer 5"><polygon class="cls-1" points="1619 1005 1706 875 1462 986.5 1619 1005"/><polygon class="cls-1" points="1707 683.34 1931.14 535.29 1707 172.62 1707 171 1706.76 172.22 1706 171 1706 175.99 1634 535 1706 681.96 1706 684 1706.76 683.5 1707 684 1707 683.34"/><polygon class="cls-2" points="918 326 1102 70 1088 277 918 326"/><polygon class="cls-3" points="983 694 1097 335 1301 171 1265 326 983 694"/><polygon class="cls-1" points="1633 535 1279 398 1342 516 1633 535"/><polygon class="cls-4" points="1572 139 1633 535 1706 171 1619 19 1572 139"/><polygon class="cls-2" points="633 986.17 578 835 983 694 794 952 633 986.17"/><polygon class="cls-5" points="1279 398 1060 914 1342 516 1279 398"/><polygon class="cls-1" points="817 612 964 429 918 326 817 612"/><polygon class="cls-5" points="500 578 613 326 918 177 918 326 500 578"/><polygon class="cls-4" points="511.13 778.58 500 578 918 326 511.13 778.58"/><polygon class="cls-4" points="964 429 1088 277 918 326 964 429"/><polygon class="cls-1" points="1261 21 1088 277 1102 70 1261 21"/><polygon class="cls-1" points="225.14 535.29 435 441 613 326 500 578 225.14 535.29"/><polygon class="cls-4" points="246 829 225.14 535.29 500 578 246 829"/><polygon class="cls-5" points="415 875 511.13 778.58 500 578 246 829 415 875"/><polygon class="cls-5" points="511.13 778.58 817 612 918 326 511.13 778.58"/><polygon class="cls-2" points="511.13 778.58 578 835 817 612 511.13 778.58"/><polygon class="cls-1" points="918 177 918 326 1102 70 918 177"/><polygon class="cls-4" points="613 326.5 854 31.5 1102 70.5 918 177.5 613 326.5"/><polygon class="cls-5" points="1088 277 1261 21 1301 171 1088 277"/><polygon class="cls-5" points="817 612 1088 277 1097 335 983 694 817 612"/><polygon class="cls-4" points="578 835 817 612 983 694 578 835"/><polygon class="cls-2" points="1265 326 1301 171 1461.25 0 1433 163 1265 326"/><polygon class="cls-1" points="983 694 1265 326 1279 398 983 694"/><polygon class="cls-4" points="1088 277 1097 335 1301 171 1088 277"/><polygon class="cls-1" points="1060 914 1342.4 516 1409.08 790.99 1060 914"/><polygon class="cls-2" points="1633 535 1342 516 1409.08 790.99 1633 535"/><polygon class="cls-1" points="1122.16 642.98 1060 914 983 694 1122.16 642.98"/><polygon class="cls-5" points="794 952 983 694 1060 914 794 952"/><polygon class="cls-2" points="613 326.5 633 107.5 854 31.5 613 326.5"/><polygon class="cls-4" points="1433 163 1279 398 1265 326 1433 163"/><polygon class="cls-1" points="1461.25 0 1572 139 1433 163 1461.25 0"/><polygon class="cls-5" points="1633 535 1433 163 1279 398 1633 535"/><polygon class="cls-2" points="1572 139 1633 535 1433 163 1572 139"/><polygon class="cls-1" points="633 107 297 170.83 613 326 633 107"/><polygon class="cls-5" points="297 170.83 434.74 440.88 613 326 297 170.83"/><polygon class="cls-4" points="434.74 440.88 297 170.83 225.14 535.29 434.74 440.88"/><polygon class="cls-4" points="1060 914 1122 643 1279 398 1060 914"/><polygon class="cls-1" points="225.14 535.29 62.17 782.75 246 829 225.14 535.29"/><polygon class="cls-5" points="1572 139 1461.25 0 1619 19 1572 139"/><polygon class="cls-1" points="1 683.34 225.14 535.29 1 172.62 1 171 0.76 172.22 0 171 0 175.99 -72 535 0 681.96 0 684 0.76 683.5 1 684 1 683.34"/><polygon class="cls-2" points="1706 684 1409.08 790.99 1706 875 1931.14 535.29 1706 684"/><polygon class="cls-4" points="578 835 511.13 778.58 306 986.13 633 1093.5 633 986.17 578 835"/><polygon class="cls-2" points="633 107.5 306 0.5 297 171.33 633 107.5"/><polygon class="cls-5" points="297 171.33 0 0.5 306 0.5 297 171.33"/><polygon class="cls-5" points="297 171 0 171.17 225.14 535.45 297 171"/><polygon class="cls-2" points="0 0.5 0 171.5 297 171.5 0 0.5"/><polygon class="cls-1" points="1261 21 1301 171 1461.25 0 1255 0 1261 21"/><polygon class="cls-5" points="1409.08 790.99 1461.25 986 1255 986 1218.2 858.08 1409.08 790.99"/><polygon class="cls-4" points="1706 875 1461 986 1409 791 1706 875"/><polygon class="cls-4" points="62.17 782.75 0 986 306 986.13 62.17 782.75"/><polygon class="cls-2" points="62.17 782.75 306 986.13 415 875 62.17 782.75"/><polygon class="cls-5" points="1060 914 1102 1056 853 1017 1060 914"/><polygon class="cls-1" points="794 952 854 1017 1060 914 794 952"/><polygon class="cls-6" points="1218.2 858.08 1102 1056 1261.39 1007.15 1218.2 858.08"/><polygon class="cls-5" points="62.17 782.75 0 875 0 986 62.17 782.75"/><polygon class="cls-1" points="1619 19 1706 -111 1462 0.5 1619 19"/><polygon class="cls-2" points="0 684 -296.92 790.99 0 875 225.14 535.29 0 684"/><polygon class="cls-2" points="633 0.17 578 -151 983 -292 794 -34 633 0.17"/><polygon class="cls-4" points="578 -151 511.13 -207.42 306 0.13 633 107.5 633 0.17 578 -151"/><polygon class="cls-4" points="62.17 -203.25 0 0 306 0.13 62.17 -203.25"/><polygon class="cls-2" points="62.17 -203.25 306 0.13 415 -111 62.17 -203.25"/><polygon class="cls-5" points="1060 -72 1102 70 853 31 1060 -72"/><polygon class="cls-1" points="794 -34 854 31 1060 -72 794 -34"/><polygon class="cls-6" points="1218.2 -127.92 1102 70 1261.39 21.15 1218.2 -127.92"/></g></svg>