<svg xmlns="http://www.w3.org/2000/svg" xmlns:xlink="http://www.w3.org/1999/xlink" viewBox="0 0 210.71 231.21"><defs><style>.cls-1{fill:none;}.cls-2,.cls-3{opacity:0.35;}.cls-2{fill:url(#linear-gradient);}.cls-3{fill:url(#linear-gradient-2);}.cls-4{fill:url(#linear-gradient-3);}.cls-5{clip-path:url(#clip-path);}.cls-33,.cls-36,.cls-6,.cls-7,.cls-8,.cls-9{opacity:0.5;}.cls-6{fill:url(#linear-gradient-4);}.cls-7{fill:url(#linear-gradient-5);}.cls-8{fill:url(#linear-gradient-6);}.cls-9{fill:url(#linear-gradient-7);}.cls-10,.cls-11{stroke-miterlimit:10;}.cls-10{stroke-opacity:0.5;fill:url(#linear-gradient-8);stroke:url(#linear-gradient-9);}.cls-11{fill:url(#linear-gradient-10);stroke:url(#linear-gradient-11);}.cls-12{isolation:isolate;}.cls-13{clip-path:url(#clip-path-2);}.cls-14{fill:#8b7839;}.cls-15{fill:#907c3b;}.cls-16{fill:#95803d;}.cls-17{fill:#9a853f;}.cls-18{fill:#9f8941;}.cls-19{fill:#a48d43;}.cls-20{fill:#a99245;}.cls-21{fill:#ae9647;}.cls-22{fill:#b39a49;}.cls-23{fill:#b89e4b;}.cls-24{fill:#bda34e;}.cls-25{fill:#c2a750;}.cls-26{fill:#c7ab52;}.cls-27{fill:#867437;}.cls-28{fill:#816f35;}.cls-29{fill:#c3a750;}.cls-30{fill:#c5a951;}.cls-31{clip-path:url(#clip-path-3);}.cls-32{fill:#f9d666;}.cls-33{fill:#4480ea;}.cls-34{fill:#3922e0;}.cls-34,.cls-35{opacity:0.65;}.cls-35{fill:#262099;}.cls-36{fill:#70cafc;}</style><linearGradient id="linear-gradient" x1="124.72" y1="108.67" x2="124.72" y2="204.54" gradientUnits="userSpaceOnUse"><stop offset="0" stop-color="#eaa38b"/><stop offset="1" stop-color="#d94677"/></linearGradient><linearGradient id="linear-gradient-2" x1="181.27" y1="111.68" x2="181.27" y2="206.63" xlink:href="#linear-gradient"/><linearGradient id="linear-gradient-3" x1="19.79" y1="209.6" x2="191.79" y2="209.6" xlink:href="#linear-gradient"/><clipPath id="clip-path" transform="translate(-32.88)"><path class="cls-1" d="M267.75,87.67H0L52.53,210h0c1.38,7.53,39.33,13.56,86,13.56s84.58-6,86-13.56h0Z"/></clipPath><linearGradient id="linear-gradient-4" x1="32.88" y1="188.44" x2="135.57" y2="188.44" xlink:href="#linear-gradient"/><linearGradient id="linear-gradient-5" x1="49.31" y1="194.44" x2="114.56" y2="194.44" xlink:href="#linear-gradient"/><linearGradient id="linear-gradient-6" x1="104.22" y1="167" x2="205.9" y2="167" xlink:href="#linear-gradient"/><linearGradient id="linear-gradient-7" x1="116.25" y1="181.86" x2="199.29" y2="181.86" xlink:href="#linear-gradient"/><linearGradient id="linear-gradient-8" x1="64.44" y1="26.41" x2="147.13" y2="109.1" gradientUnits="userSpaceOnUse"><stop offset="0" stop-color="#2a2d65"/><stop offset="1" stop-color="#17193c"/></linearGradient><linearGradient id="linear-gradient-9" x1="65.78" y1="67.75" x2="145.8" y2="67.75" gradientUnits="userSpaceOnUse"><stop offset="0" stop-color="#70cafc"/><stop offset="1" stop-color="#2d1da3"/></linearGradient><linearGradient id="linear-gradient-10" x1="81.3" y1="43.26" x2="130.28" y2="92.24" gradientUnits="userSpaceOnUse"><stop offset="0" stop-color="#5154b8"/><stop offset="1" stop-color="#2840ad"/></linearGradient><linearGradient id="linear-gradient-11" x1="80.91" y1="42.87" x2="130.67" y2="92.64" xlink:href="#linear-gradient-9"/><clipPath id="clip-path-2" transform="translate(-32.88)"><path class="cls-1" d="M243.57,97.65l-.38,2.78c-.36,2.6-5.15,4.44-12.58,4.44-9.69,0-20.21-3.13-23.48-7a3.29,3.29,0,0,1-1-2.55l.38-2.78a3.29,3.29,0,0,0,1,2.55c3.27,3.87,13.79,7,23.48,7C238.42,102.1,243.21,100.26,243.57,97.65Z"/></clipPath><clipPath id="clip-path-3" transform="translate(-32.88)"><path class="cls-1" d="M75.57,141l1.93,1.55A13.07,13.07,0,0,1,82,154.73c-1.08,8.17-8.32,14.8-16.18,14.8a12.27,12.27,0,0,1-7.75-2.63l-1.93-1.55A12.27,12.27,0,0,0,63.9,168c7.86,0,15.1-6.63,16.18-14.8A13.07,13.07,0,0,0,75.57,141Z"/></clipPath></defs><title>spot-rewards</title><g id="Layer_2" data-name="Layer 2"><g id="Iconography"><path class="cls-2" d="M71.88,108.68c-2.13-.51,15.84,37.07,5.89,95.87l100-2.83Z" transform="translate(-32.88)"/><path class="cls-3" d="M142.88,111.68s5.47,58.1-3,93c0,2.83,82.78,1.75,82.78,1.75Z" transform="translate(-32.88)"/><ellipse class="cls-4" cx="105.79" cy="209.6" rx="86" ry="13.98"/><g class="cls-5"><path class="cls-6" d="M55.92,215.29l-23-69.61c11.66,15.88,23.8,25.27,43.38,43.08a304.72,304.72,0,0,0,59.31,42.46Z" transform="translate(-32.88)"/><polygon class="cls-7" points="49.31 230.36 83 157.68 114.56 231.21 49.31 230.36"/><path class="cls-8" d="M205.9,104.9a464.78,464.78,0,0,1-59,82.79,424.61,424.61,0,0,1-42.67,41.39h75.35c4.79-16.44,9.41-34.15,13.62-53.07C198.8,150.78,202.9,126.94,205.9,104.9Z" transform="translate(-32.88)"/><polygon class="cls-9" points="199.29 138.87 116.25 224.84 186.58 221.66 191.66 208.92 199.29 138.87"/></g><polygon class="cls-10" points="145.3 110.93 145.3 24.57 105.79 0.58 66.28 24.57 66.28 110.93 105.79 134.92 145.3 110.93"/><polygon class="cls-11" points="126.28 96.25 126.28 39.26 105.79 27.05 85.3 39.26 85.3 96.25 105.79 108.46 126.28 96.25"/><g class="cls-12"><g class="cls-12"><g class="cls-13"><g class="cls-12"><path class="cls-14" d="M243.57,97.65l-.38,2.78v0l.38-2.78v0" transform="translate(-32.88)"/><path class="cls-15" d="M243.57,97.67l-.38,2.78a2.36,2.36,0,0,1-.14.53l.38-2.78a2.36,2.36,0,0,0,.14-.53" transform="translate(-32.88)"/><path class="cls-16" d="M243.43,98.2,243,101a2.7,2.7,0,0,1-.24.47l.38-2.78a2.7,2.7,0,0,0,.24-.47" transform="translate(-32.88)"/><path class="cls-17" d="M243.18,98.67l-.38,2.78a3.34,3.34,0,0,1-.33.43l.38-2.78a3.34,3.34,0,0,0,.33-.43" transform="translate(-32.88)"/><path class="cls-18" d="M242.85,99.1l-.38,2.78a4.29,4.29,0,0,1-.42.4l.38-2.78a4.29,4.29,0,0,0,.42-.4" transform="translate(-32.88)"/><path class="cls-19" d="M242.44,99.5l-.38,2.78a5.6,5.6,0,0,1-.51.38l.38-2.78a5.6,5.6,0,0,0,.51-.38" transform="translate(-32.88)"/><path class="cls-20" d="M241.93,99.88l-.38,2.78q-.28.19-.61.36l.38-2.78q.32-.17.61-.36" transform="translate(-32.88)"/><path class="cls-21" d="M241.32,100.24l-.38,2.78q-.34.18-.72.35l.38-2.78q.39-.17.72-.35" transform="translate(-32.88)"/><path class="cls-22" d="M240.6,100.59l-.38,2.78q-.41.18-.88.34l.38-2.78q.47-.16.88-.34" transform="translate(-32.88)"/><path class="cls-23" d="M239.72,100.92l-.38,2.78q-.52.18-1.1.33l.38-2.78q.58-.15,1.1-.33" transform="translate(-32.88)"/><path class="cls-24" d="M238.62,101.26l-.38,2.78q-.71.19-1.51.34l.38-2.78q.8-.15,1.51-.34" transform="translate(-32.88)"/><path class="cls-25" d="M237.11,101.59l-.38,2.78c-.87.16-1.83.29-2.85.37l.38-2.78c1-.09,2-.21,2.85-.37" transform="translate(-32.88)"/><path class="cls-26" d="M234.26,102l-.38,2.78c-1,.08-2.11.13-3.27.13h-.5l.38-2.78h.5c1.16,0,2.25,0,3.27-.13" transform="translate(-32.88)"/><path class="cls-25" d="M230.49,102.09l-.38,2.78c-1,0-2.08-.06-3.12-.14l.38-2.78c1,.08,2.08.12,3.12.14" transform="translate(-32.88)"/><path class="cls-24" d="M227.37,102l-.38,2.78q-1-.07-1.91-.18l.38-2.78q1,.11,1.91.18" transform="translate(-32.88)"/><path class="cls-23" d="M225.46,101.78l-.38,2.78-1.59-.2.38-2.78,1.59.2" transform="translate(-32.88)"/><path class="cls-22" d="M223.87,101.57l-.38,2.78-1.44-.23.38-2.78,1.44.23" transform="translate(-32.88)"/><path class="cls-21" d="M222.42,101.34l-.38,2.78-1.35-.25.38-2.78,1.35.25" transform="translate(-32.88)"/><path class="cls-20" d="M221.07,101.09l-.38,2.78-1.29-.28.38-2.78,1.29.28" transform="translate(-32.88)"/><path class="cls-19" d="M219.78,100.81l-.38,2.78-1.25-.3.38-2.78,1.25.3" transform="translate(-32.88)"/><path class="cls-18" d="M218.52,100.51l-.38,2.78-1.23-.33.38-2.78,1.23.33" transform="translate(-32.88)"/><path class="cls-17" d="M217.3,100.18l-.38,2.78-1.21-.37.38-2.78,1.21.37" transform="translate(-32.88)"/><path class="cls-16" d="M216.08,99.81l-.38,2.78-1.22-.41.38-2.78,1.22.41" transform="translate(-32.88)"/><path class="cls-15" d="M214.86,99.4l-.38,2.78-1.24-.47.38-2.78,1.24.47" transform="translate(-32.88)"/><path class="cls-14" d="M213.62,98.93l-.38,2.78q-.68-.27-1.31-.56l.38-2.78q.63.29,1.31.56" transform="translate(-32.88)"/><path class="cls-27" d="M212.31,98.37l-.38,2.78q-.79-.36-1.49-.75l.38-2.78q.7.39,1.49.75" transform="translate(-32.88)"/><path class="cls-28" d="M210.82,97.62l-.38,2.78a11.8,11.8,0,0,1-3.31-2.52,3.29,3.29,0,0,1-1-2.55l.38-2.78a3.29,3.29,0,0,0,1,2.55,11.8,11.8,0,0,0,3.31,2.52" transform="translate(-32.88)"/></g></g></g><path class="cls-29" d="M219.14,88.1c9.69,0,20.2,3.13,23.47,7s-1.93,7-11.62,7-20.21-3.13-23.48-7S209.45,88.1,219.14,88.1Z" transform="translate(-32.88)"/></g><g class="cls-12"><path class="cls-30" d="M67.81,138.39c7.86,0,13.35,6.63,12.27,14.8S71.76,168,63.9,168s-13.34-6.63-12.26-14.8S60,138.39,67.81,138.39Z" transform="translate(-32.88)"/><g class="cls-12"><g class="cls-31"><g class="cls-12"><path class="cls-18" d="M75.57,141l1.93,1.55L78,143l-1.93-1.55-.49-.42" transform="translate(-32.88)"/><path class="cls-19" d="M76.06,141.44,78,143q.4.36.77.75l-1.93-1.55q-.37-.39-.77-.75" transform="translate(-32.88)"/><path class="cls-20" d="M76.83,142.19l1.93,1.55q.38.41.73.85L77.56,143q-.34-.44-.73-.85" transform="translate(-32.88)"/><path class="cls-21" d="M77.56,143l1.93,1.55q.37.48.69,1L78.25,144q-.32-.52-.69-1" transform="translate(-32.88)"/><path class="cls-22" d="M78.25,144l1.93,1.55a12.45,12.45,0,0,1,.66,1.2l-1.93-1.55a12.45,12.45,0,0,0-.66-1.2" transform="translate(-32.88)"/><path class="cls-23" d="M78.91,145.24l1.93,1.55a12.87,12.87,0,0,1,.66,1.65l-1.93-1.55a12.87,12.87,0,0,0-.66-1.65" transform="translate(-32.88)"/><path class="cls-24" d="M79.57,146.89l1.93,1.55a14.41,14.41,0,0,1,.51,6.29q-.09.71-.25,1.41l-1.93-1.55q.15-.7.25-1.41a14.41,14.41,0,0,0-.51-6.29" transform="translate(-32.88)"/><path class="cls-23" d="M79.83,154.59l1.93,1.55a16.65,16.65,0,0,1-.52,1.84l-1.93-1.55a16.65,16.65,0,0,0,.52-1.84" transform="translate(-32.88)"/><path class="cls-22" d="M79.31,156.44,81.24,158q-.25.73-.57,1.43l-1.93-1.55q.32-.7.57-1.43" transform="translate(-32.88)"/><path class="cls-21" d="M78.74,157.87l1.93,1.55q-.28.61-.6,1.2l-1.93-1.55q.32-.59.6-1.2" transform="translate(-32.88)"/><path class="cls-20" d="M78.14,159.07l1.93,1.55q-.3.55-.65,1.09l-1.93-1.55q.34-.53.65-1.09" transform="translate(-32.88)"/><path class="cls-19" d="M77.49,160.16l1.93,1.55q-.33.51-.7,1l-1.93-1.55q.37-.49.7-1" transform="translate(-32.88)"/><path class="cls-18" d="M76.79,161.16l1.93,1.55q-.36.49-.76.94L76,162.1q.39-.46.76-.94" transform="translate(-32.88)"/><path class="cls-17" d="M76,162.1,78,163.65q-.4.47-.83.9L75.2,163q.43-.44.83-.9" transform="translate(-32.88)"/><path class="cls-16" d="M75.2,163l1.93,1.55q-.45.45-.93.87l-1.93-1.55q.48-.42.93-.87" transform="translate(-32.88)"/><path class="cls-15" d="M74.28,163.88l1.93,1.55q-.51.45-1.06.86l-1.93-1.55q.54-.41,1.06-.86" transform="translate(-32.88)"/><path class="cls-14" d="M73.22,164.74l1.93,1.55q-.61.46-1.25.86L72,165.6q.64-.4,1.25-.86" transform="translate(-32.88)"/><path class="cls-27" d="M72,165.6l1.93,1.55a16.66,16.66,0,0,1-1.64.9l-1.93-1.55a16.66,16.66,0,0,0,1.64-.9" transform="translate(-32.88)"/><path class="cls-28" d="M70.32,166.5,72.26,168a15,15,0,0,1-6.42,1.49,12.27,12.27,0,0,1-7.75-2.63l-1.93-1.55A12.27,12.27,0,0,0,63.9,168a15,15,0,0,0,6.42-1.49" transform="translate(-32.88)"/></g></g></g></g><rect class="cls-32" x="80.65" y="167.31" width="5.99" height="27.54"/><polygon class="cls-33" points="145.3 24.57 126.28 39.26 105.79 27.05 105.79 0.58 145.3 24.57"/><polygon class="cls-34" points="66.28 110.93 85.3 96.25 105.79 108.46 105.79 134.92 66.28 110.93"/><polygon class="cls-35" points="126.28 96.25 145.3 110.93 105.79 134.92 105.79 108.46 126.28 96.25"/><polygon class="cls-36" points="66.28 24.57 85.3 39.26 105.79 27.05 105.79 0.58 66.28 24.57"/></g></g></svg>