<svg xmlns="http://www.w3.org/2000/svg" xmlns:xlink="http://www.w3.org/1999/xlink" viewBox="0 0 153.12 250"><defs><style>.cls-1,.cls-2,.cls-20{fill:none;}.cls-2,.cls-5{opacity:0.25;}.cls-3{fill:url(#linear-gradient);}.cls-18,.cls-4{fill:#60d7f9;}.cls-5{fill:url(#linear-gradient-2);}.cls-6{fill:#00aeea;}.cls-7{fill:#11112e;}.cls-8{fill:#a6bbd3;}.cls-9{fill:url(#linear-gradient-3);}.cls-10{fill:url(#linear-gradient-4);}.cls-11,.cls-13{fill:#37adff;}.cls-12{clip-path:url(#clip-path);}.cls-13{opacity:0.1;}.cls-14{fill:url(#linear-gradient-5);}.cls-15{clip-path:url(#clip-path-2);}.cls-16{fill:#f6f7f8;}.cls-17{fill:#2c347c;}.cls-18,.cls-20{stroke:#60d7f9;stroke-miterlimit:10;}.cls-19{clip-path:url(#clip-path-3);}.cls-21{fill:url(#linear-gradient-6);}.cls-22{fill:#2d2d2d;}.cls-23{isolation:isolate;}.cls-24{clip-path:url(#clip-path-4);}.cls-25{fill:#816f35;}.cls-26{fill:#867437;}.cls-27{fill:#8b7839;}.cls-28{fill:#907c3b;}.cls-29{fill:#95803d;}.cls-30{fill:#9a853f;}.cls-31{fill:#9f8941;}.cls-32{fill:#a48d43;}.cls-33{fill:#a99245;}.cls-34{fill:#ae9647;}.cls-35{fill:#b39a49;}.cls-36{fill:#b89e4b;}.cls-37{fill:#bda34e;}.cls-38{fill:#cdb054;}.cls-39{fill:#dbbc5a;}.cls-40{clip-path:url(#clip-path-5);}.cls-41{fill:#f9d666;}</style><linearGradient id="linear-gradient" x1="87.57" y1="156.39" x2="187.66" y2="156.39" gradientTransform="translate(-34.33 -46.14) rotate(5)" gradientUnits="userSpaceOnUse"><stop offset="0" stop-color="#17193c"/><stop offset="1" stop-color="#2a2d65"/></linearGradient><linearGradient id="linear-gradient-2" x1="44.62" y1="121.63" x2="129.62" y2="121.63" gradientUnits="userSpaceOnUse"><stop offset="0" stop-color="#eaa38b"/><stop offset="1" stop-color="#d94677"/></linearGradient><linearGradient id="linear-gradient-3" x1="94.59" y1="184.25" x2="151.33" y2="184.25" gradientTransform="translate(-34.33 -46.14) rotate(5)" gradientUnits="userSpaceOnUse"><stop offset="0" stop-color="#302bf7"/><stop offset="1" stop-color="#00aeea"/></linearGradient><linearGradient id="linear-gradient-4" x1="94.59" y1="98.03" x2="179.04" y2="98.03" xlink:href="#linear-gradient-3"/><clipPath id="clip-path"><path class="cls-1" d="M101.54,86.72,49.06,86,52.64,45S120.1,39.78,122,39.66c3.61-.23,3,1,1.07,2-1.71,1-4.48,1.71-4.6,3-.61,6.92,19.29-3.19,18.72,3.24s-19.64.25-20.37,8.55c-.54,6.22,7.41.43,6.92,6s-27,0-27.62,6.71,16.55-.25,16.13,4.56-8.27-1.3-8.8,4.81c-.2,2.29,1.21,3.62,3.2,4.1C109.58,83.4,106,86.79,101.54,86.72Z"/></clipPath><linearGradient id="linear-gradient-5" x1="94.59" y1="207.97" x2="175.94" y2="207.97" xlink:href="#linear-gradient-3"/><clipPath id="clip-path-2"><path class="cls-1" d="M40.88,179.5l2.44-27.73,68.28,9.38c3.56.49,4.08,2.51,2.2,3.3-1.7.72-5.47-1.52-5.86,2.91-.52,5.92,15.53,1.52,14.91,8.55s-20.76-4.48-21.56,4.57c-.6,6.79,12,4.34,11.52,9.57s-17.83.87-27.05-.9"/></clipPath><clipPath id="clip-path-3"><path class="cls-2" d="M126.84,140.19a24.38,24.38,0,0,1-9.09.77c-10-.93-13.94-7.94-23.59-7.54a25,25,0,0,0-11.55,3.68l3.19-36.5a25.34,25.34,0,0,1,10.49,0c11.43,2.51,15.52,12.17,24.69,10.84,2-.29,5-1.22,8.74-4.41C128.76,118,127.8,129.21,126.84,140.19Z"/></clipPath><linearGradient id="linear-gradient-6" x1="49.16" y1="153.98" x2="132.48" y2="153.98" gradientTransform="translate(-34.33 -46.14) rotate(5)" xlink:href="#linear-gradient-2"/><clipPath id="clip-path-4"><path class="cls-1" d="M31.69,146.74l-.91,1.67c-.34.63-1.79.61-3.88-.15-2.94-1.07-6-3.22-6.93-4.8a1.12,1.12,0,0,1-.16-1.07l.91-1.67a1.12,1.12,0,0,0,.16,1.07c.89,1.58,4,3.73,6.93,4.8C29.9,147.35,31.35,147.36,31.69,146.74Z"/></clipPath><clipPath id="clip-path-5"><path class="cls-1" d="M46.18,75.58l.3,1a4.63,4.63,0,0,1,.17,1.8c-.3,3-3.3,5.41-6.7,5.41a5.46,5.46,0,0,1-5.44-3.61l-.3-1a5.46,5.46,0,0,0,5.44,3.61c3.4,0,6.4-2.42,6.7-5.41A4.63,4.63,0,0,0,46.18,75.58Z"/></clipPath></defs><title>spot-adtech</title><g id="Layer_2" data-name="Layer 2"><g id="Iconography"><polygon class="cls-3" points="128.16 249.76 30.24 220.65 48.11 16.3 149.81 2.27 128.16 249.76"/><polygon class="cls-4" points="145.53 24.61 44.77 34.78 46.59 14.06 147.68 0.01 145.53 24.61"/><polygon class="cls-5" points="126.7 140.22 44.62 131.99 47.15 103.05 129.62 106.84 126.7 140.22"/><polygon class="cls-6" points="147.71 25.27 145.53 24.5 147.68 0 149.84 0.9 147.71 25.27"/><polygon class="cls-6" points="147.95 25.09 47.15 35.49 44.79 34.86 145.71 24.3 147.95 25.09"/><polygon class="cls-7" points="131.5 249.38 128.14 250 149.93 0.93 153.12 2.26 131.5 249.38"/><path class="cls-8" d="M53.27,199.77c-.42,4.86-3.65,8.11-7.16,7.27s-5.9-5.34-5.49-10.08,3.53-8,7-7.3S53.69,194.91,53.27,199.77Z"/><path class="cls-8" d="M73.07,204.17c-.44,5-3.89,8.38-7.65,7.48s-6.34-5.58-5.91-10.49,3.76-8.28,7.49-7.52S73.51,199.14,73.07,204.17Z"/><path class="cls-8" d="M95.47,209.15c-.46,5.23-4.17,8.68-8.23,7.71s-6.86-5.86-6.41-11,4-8.58,8-7.75S95.93,203.92,95.47,209.15Z"/><path class="cls-8" d="M120.37,214.68c-.48,5.45-4.49,9-8.9,8s-7.45-6.17-7-11.49,4.33-8.9,8.69-8S120.85,209.23,120.37,214.68Z"/><polygon class="cls-9" points="99.99 154.81 43.67 147.55 44.21 141.44 100.58 148.06 99.99 154.81"/><path class="cls-10" d="M101.54,86.72,49.06,86,52.64,45S120.1,39.78,122,39.66c3.61-.23,3,1,1.07,2-1.71,1-4.48,1.71-4.6,3-.61,6.92,19.29-3.19,18.72,3.24s-19.64.25-20.37,8.55c-.54,6.22,7.41.43,6.92,6s-27,0-27.62,6.71,16.55-.25,16.13,4.56-8.27-1.3-8.8,4.81c-.2,2.29,1.21,3.62,3.2,4.1C109.58,83.4,106,86.79,101.54,86.72Z"/><path class="cls-11" d="M115.47,79.9a3.07,3.07,0,0,1,2.8-1.73,1.94,1.94,0,0,1,2,2,2.7,2.7,0,0,1-2.57,2C116.33,82.21,114.84,81.05,115.47,79.9Z"/><g class="cls-12"><polygon class="cls-13" points="124.51 46.26 52.12 51.03 52.64 45.03 125.11 39.47 124.51 46.26"/><polygon class="cls-13" points="123.32 59.84 51.16 61.98 51.69 55.99 123.92 53.05 123.32 59.84"/><polygon class="cls-13" points="113.48 73.49 50.11 73.98 50.64 67.98 114.06 66.79 113.48 73.49"/><polygon class="cls-13" points="112.31 86.88 49.06 85.97 49.59 79.97 112.89 80.18 112.31 86.88"/></g><path class="cls-14" d="M40.88,179.5l2.44-27.73,68.28,9.38c3.56.49,4.08,2.51,2.2,3.3-1.7.72-5.47-1.52-5.86,2.91-.52,5.92,15.53,1.52,14.91,8.55s-20.76-4.48-21.56,4.57c-.6,6.79,12,4.34,11.52,9.57s-17.83.87-27.05-.9"/><g class="cls-15"><polygon class="cls-13" points="114.04 169.05 42.74 158.37 43.31 151.77 114.69 161.58 114.04 169.05"/><polygon class="cls-13" points="127.84 188.18 41.56 171.84 42.13 165.24 128.51 180.52 127.84 188.18"/></g><path class="cls-16" d="M63.42,22.49c-.37,4.23-3.22,7.89-6.34,8.17s-5.27-2.86-4.9-7,3.14-7.79,6.23-8.16S63.79,18.26,63.42,22.49Z"/><path class="cls-16" d="M138.55,8.3,125.8,9.73c-.41,0-.72-.32-.67-.82h0a1.08,1.08,0,0,1,.83-1l12.76-1.47c.43,0,.75.33.7.83h0A1.11,1.11,0,0,1,138.55,8.3Z"/><path class="cls-7" d="M126.33,140.77h0a1.07,1.07,0,0,1-.94-1.18l2.85-31.91a1.07,1.07,0,0,1,1.13-1h0a1.07,1.07,0,0,1,.94,1.18l-2.85,31.91A1.07,1.07,0,0,1,126.33,140.77Z"/><path class="cls-16" d="M138,14.17,125.3,15.48c-.41,0-.72-.33-.67-.83h0a1.06,1.06,0,0,1,.83-1l12.75-1.35c.43,0,.75.33.7.84h0A1.09,1.09,0,0,1,138,14.17Z"/><path class="cls-4" d="M61.94,110.31A54.83,54.83,0,0,1,44.68,106a51,51,0,0,1-7.81-4.36c-1.23-.83-2.42-1.71-3.57-2.61l-1.69-1.35a18.11,18.11,0,0,0-1.52-1.09,22.68,22.68,0,0,0-14.81-3.37,13.06,13.06,0,0,0-3.51,1,6.27,6.27,0,0,0-2.51,2.06A7.33,7.33,0,0,0,8,99.38a10.7,10.7,0,0,0-.12,1.82A10.83,10.83,0,0,0,8.1,103l-3.43.84a13.82,13.82,0,0,1-.34-2.47,14.32,14.32,0,0,1,.08-2.44,11.07,11.07,0,0,1,1.7-4.78A10.15,10.15,0,0,1,10,90.67a16.8,16.8,0,0,1,4.6-1.49,24.83,24.83,0,0,1,9.26.19,27.31,27.31,0,0,1,8.64,3.29,22.66,22.66,0,0,1,2,1.33l1.67,1.27c1.1.83,2.22,1.62,3.36,2.36a46.16,46.16,0,0,0,7.13,3.81,49.74,49.74,0,0,0,15.73,3.62Z"/><path class="cls-16" d="M137.54,19.85,124.81,21c-.41,0-.72-.34-.67-.83h0a1.05,1.05,0,0,1,.83-1L137.71,18c.43,0,.75.34.7.85h0A1.08,1.08,0,0,1,137.54,19.85Z"/><path class="cls-17" d="M126.9,139.57a1.05,1.05,0,0,1-.81.93,25.82,25.82,0,0,1-8.35.46c-10-.95-13.68-8.21-22.18-8.85-2.7-.2-6.46.23-11.14,3a1,1,0,0,1-1.58-1l2.22-25.4a1.07,1.07,0,0,1,.49-.8C91,104.48,95.26,104,98,104.08c9.75.33,14.39,8.47,23,7.4a14.84,14.84,0,0,0,6.87-2.86,1,1,0,0,1,1.66.93C128.64,119.49,127.77,129.65,126.9,139.57Z"/><path class="cls-4" d="M126.94,138.79a30.33,30.33,0,0,1-11.58-.84c-11.52-3.13-17-11.54-26.22-6.45a24.94,24.94,0,0,0-6.54,5.59l.13-1.52c5.5-5.74,9.84-7.46,12.66-8,8.13-1.64,11.84,4.74,21.65,6.27a25.6,25.6,0,0,0,10.37-.53Z"/><path class="cls-4" d="M129.11,114a.53.53,0,0,1-.45.48,24.89,24.89,0,0,1-10.54-.54c-10.38-2.81-14.59-10.78-23.68-9.07A21.6,21.6,0,0,0,85,109.72l.11-1.29a.51.51,0,0,1,.2-.37,26.27,26.27,0,0,1,9.26-4.66c9.85-2.46,14.43,4.59,25.35,5.08a26.82,26.82,0,0,0,9-1.18.52.52,0,0,1,.68.54Z"/><path class="cls-18" d="M108.23,114.88c-.07.8-.43,1.41-.81,1.36s-.63-.73-.56-1.53.44-1.41.81-1.36S108.3,114.08,108.23,114.88Z"/><path class="cls-18" d="M97.55,119.54c-.07.82-.45,1.44-.85,1.4s-.66-.74-.59-1.56.45-1.45.85-1.4S97.62,118.73,97.55,119.54Z"/><g class="cls-19"><path class="cls-20" d="M132.61,121.76s-5.29,4.17-9.57,3.73c-5.83-.6-11-8-14.9-10.27"/><path class="cls-20" d="M115.14,121.48l-.91,2.77s4.89,4.77,10,5.25,8.46-3.33,8.46-3.33"/><path class="cls-20" d="M81.14,129.81C84.8,125,90,121,96,119.6"/></g><polygon class="cls-21" points="82.61 137.24 0 125.53 2.12 101.32 85.83 100.36 82.61 137.24"/><polygon class="cls-22" points="83.65 136.81 82.61 137.24 85.83 100.4 86.78 101 83.65 136.81"/><g class="cls-23"><g class="cls-23"><g class="cls-24"><g class="cls-23"><path class="cls-25" d="M31.69,146.74l-.91,1.67,0,0,.91-1.67,0,0"/><path class="cls-26" d="M31.67,146.77l-.91,1.67a.67.67,0,0,1-.18.18l.91-1.67a.67.67,0,0,0,.18-.18"/><path class="cls-27" d="M31.49,147l-.91,1.67a1,1,0,0,1-.21.11l.91-1.67a1,1,0,0,0,.21-.11"/><path class="cls-28" d="M31.28,147.07l-.91,1.67-.23.07.91-1.67.23-.07"/><path class="cls-29" d="M31,147.14l-.91,1.67-.26,0,.91-1.67.26,0"/><path class="cls-30" d="M30.79,147.17l-.91,1.67h-.28l.91-1.67h.28"/><path class="cls-31" d="M30.51,147.18l-.91,1.67h-.31l.91-1.67h.31"/><path class="cls-32" d="M30.2,147.17l-.91,1.67-.35,0,.91-1.67.35,0"/><path class="cls-33" d="M29.85,147.13l-.91,1.67-.4-.07.91-1.67.4.07"/><path class="cls-34" d="M29.44,147.06l-.91,1.67-.49-.11L29,147l.49.11"/><path class="cls-35" d="M29,147,28,148.62l-.64-.19.91-1.67L29,147"/><path class="cls-36" d="M28.31,146.76l-.91,1.67-.5-.17-.86-.34.91-1.67.86.34.5.17"/><path class="cls-37" d="M27,146.25,26,147.92l-.51-.23.91-1.67.51.23"/><path class="cls-36" d="M26.45,146l-.91,1.67c-.44-.21-.88-.43-1.3-.67l.91-1.67c.42.24.86.46,1.3.67"/><path class="cls-35" d="M25.15,145.36,24.23,147l-.66-.38.91-1.67.66.38"/><path class="cls-34" d="M24.49,145l-.91,1.67L23,146.3l.91-1.67.53.34"/><path class="cls-33" d="M24,144.64,23,146.3l-.46-.31.91-1.67.46.31"/><path class="cls-32" d="M23.5,144.33,22.58,146l-.41-.3.91-1.67.41.3"/><path class="cls-31" d="M23.09,144l-.91,1.67-.38-.29.91-1.67.38.29"/><path class="cls-30" d="M22.71,143.74l-.91,1.67-.35-.29.91-1.67.35.29"/><path class="cls-29" d="M22.36,143.45l-.91,1.67-.33-.3.91-1.67.33.3"/><path class="cls-28" d="M22,143.15l-.91,1.67-.32-.31.91-1.67.32.31"/><path class="cls-27" d="M21.71,142.84l-.91,1.67-.31-.34.91-1.67.31.34"/><path class="cls-26" d="M21.4,142.5l-.91,1.67c-.12-.14-.22-.27-.32-.41l.91-1.67c.09.13.2.27.32.41"/><path class="cls-25" d="M21.08,142.1l-.91,1.67a3.57,3.57,0,0,1-.19-.3,1.12,1.12,0,0,1-.16-1.07l.91-1.67a1.12,1.12,0,0,0,.16,1.07,3.57,3.57,0,0,0,.19.3"/></g></g></g><path class="cls-38" d="M24.61,140.87c2.94,1.07,6,3.22,6.92,4.8s-.78,2-3.72.92-6-3.22-6.93-4.8S21.67,139.8,24.61,140.87Z"/></g><g class="cls-23"><path class="cls-39" d="M40.73,72c3.4,0,5.92,2.42,5.62,5.42s-3.3,5.41-6.7,5.41S33.73,80.37,34,77.38,37.33,72,40.73,72Z"/><g class="cls-23"><g class="cls-40"><g class="cls-23"><path class="cls-30" d="M46.18,75.58l.3,1q.05.17.09.36l-.3-1q0-.18-.09-.36"/><path class="cls-31" d="M46.27,75.93l.3,1a4.63,4.63,0,0,1,.1,1.13l-.3-1a4.63,4.63,0,0,0-.1-1.13"/><path class="cls-32" d="M46.37,77.06l.3,1q0,.16,0,.32a5.24,5.24,0,0,1-.77,2.23l-.3-1a5.24,5.24,0,0,0,.77-2.23q0-.16,0-.32"/><path class="cls-31" d="M45.58,79.61l.3,1a6.11,6.11,0,0,1-.76,1l-.3-1a6.11,6.11,0,0,0,.76-1"/><path class="cls-30" d="M44.81,80.6l.3,1a6.65,6.65,0,0,1-.69.63l-.3-1a6.65,6.65,0,0,0,.69-.63"/><path class="cls-29" d="M44.12,81.23l.3,1a7,7,0,0,1-.7.49l-.3-1a7,7,0,0,0,.7-.49"/><path class="cls-28" d="M43.43,81.72l.3,1a7.18,7.18,0,0,1-.74.4l-.3-1a7.18,7.18,0,0,0,.74-.4"/><path class="cls-27" d="M42.68,82.12l.3,1a7.27,7.27,0,0,1-.83.32l-.3-1a7.27,7.27,0,0,0,.83-.32"/><path class="cls-26" d="M41.85,82.44l.3,1a7.27,7.27,0,0,1-1,.25l-.3-1a7.27,7.27,0,0,0,1-.25"/><path class="cls-25" d="M40.82,82.69l.3,1a7.2,7.2,0,0,1-1.18.1,5.46,5.46,0,0,1-5.44-3.61l-.3-1a5.46,5.46,0,0,0,5.44,3.61,7.2,7.2,0,0,0,1.18-.1"/></g></g></g></g><rect class="cls-41" x="3.87" y="162.27" width="2.08" height="10.42" transform="translate(-116.99 52.53) rotate(-45)"/><rect class="cls-41" x="72.64" y="83.09" width="2.08" height="10.42" transform="translate(25.36 -16.06) rotate(15)"/></g></g></svg>