<svg xmlns="http://www.w3.org/2000/svg" viewBox="0 0 100 110"><defs><style>.cls-1{fill:#f6f7f8;}</style></defs><title>WaveTile</title><g id="Main"><path class="cls-1" d="M-9.26,15.17l-.37-.34A43.19,43.19,0,0,1,1.27,6.17C8,2.48,14,1.56,19.92.66c6.5-1,12.64-1.92,18.54-6.69a29,29,0,0,0,5.78-6.33l.41.28a29.54,29.54,0,0,1-5.88,6.44C32.77-.78,26.56.16,20,1.16,14.16,2,8.13,3,1.51,6.61A42.7,42.7,0,0,0-9.26,15.17Z"/><path class="cls-1" d="M-11.87,13.52l-.33-.38A61.62,61.62,0,0,1-.11,5a75.84,75.84,0,0,1,16-5.75C22.2-2.48,27.66-3.94,32.41-8.88a25.91,25.91,0,0,0,4.77-7l.45.21a26.41,26.41,0,0,1-4.86,7.1C27.92-3.49,22.41-2,16-.3A75.4,75.4,0,0,0,.11,5.41,61.12,61.12,0,0,0-11.87,13.52Z"/><path class="cls-1" d="M-13.36,12l-.33-.38A61.62,61.62,0,0,1-1.6,3.48a75.84,75.84,0,0,1,16-5.75C20.72-4,26.18-5.42,30.93-10.36a25.91,25.91,0,0,0,4.77-7l.45.21A26.41,26.41,0,0,1,31.29-10C26.44-5,20.92-3.5,14.54-1.79A75.4,75.4,0,0,0-1.37,3.93,61.12,61.12,0,0,0-13.36,12Z"/><path class="cls-1" d="M-7.3,17.65l-.41-.29A34.25,34.25,0,0,1,2.46,7.84c6.81-4.06,13.5-4.58,20-5.08,6.87-.53,13.37-1,19.08-5.92a23.63,23.63,0,0,0,5.22-6.41l.44.25a24.11,24.11,0,0,1-5.33,6.55c-5.84,5-12.41,5.5-19.37,6-6.4.49-13,1-19.74,5A33.73,33.73,0,0,0-7.3,17.65Z"/><path class="cls-1" d="M-5,19.29-5.4,19A26.78,26.78,0,0,1,2.92,9.7C9.43,5.3,16.5,5.27,23.34,5.23S37.44,5.16,43.83.45a24.51,24.51,0,0,0,6-6.51l.42.27A25,25,0,0,1,44.13.85C37.6,5.66,30.35,5.7,23.34,5.73c-6.76,0-13.76.07-20.15,4.38A26.29,26.29,0,0,0-5,19.29Z"/><path class="cls-1" d="M-3,21.76l-.46-.18a22.84,22.84,0,0,1,8-10.67c6-4.2,12.74-3.7,19.83-3.17s14.36,1.07,21.57-3a27.57,27.57,0,0,0,8.72-8L55-3a28.09,28.09,0,0,1-8.87,8.13C38.8,9.31,31.42,8.76,24.29,8.23s-13.62-1-19.51,3.09A22.36,22.36,0,0,0-3,21.76Z"/><path class="cls-1" d="M8.63,23.21c-2.76,0-5-1-5.65-2.8-.52-1.39-.09-3,1.22-4.62A13.24,13.24,0,0,1,9.75,12a13.24,13.24,0,0,1,6.64-.82c2,.34,3.44,1.29,4,2.68h0c.52,1.39.09,3-1.22,4.62a13.24,13.24,0,0,1-5.55,3.74A14.29,14.29,0,0,1,8.63,23.21Zm6.09-11.63a13.87,13.87,0,0,0-4.79.92A12.75,12.75,0,0,0,4.59,16.1C3.4,17.55,3,19,3.45,20.23c1,2.56,5.43,3.26,10,1.56a12.74,12.74,0,0,0,5.34-3.59c1.19-1.45,1.6-2.91,1.14-4.13h0c-.46-1.22-1.72-2.05-3.57-2.36A9.74,9.74,0,0,0,14.72,11.58Z"/><path class="cls-1" d="M-.06,29.38q-1.42,0-2.88-.1l0-.5a32.88,32.88,0,0,0,17.65-3.31,22.21,22.21,0,0,0,6.49-5,28.56,28.56,0,0,1,6.83-5.52,31.8,31.8,0,0,1,11.07-4,22.26,22.26,0,0,0,9.47-3.64c4.24-3,7.57-7.4,9.91-13.22l.46.19C56.6.17,53.21,4.69,48.89,7.71a22.66,22.66,0,0,1-9.66,3.72,31,31,0,0,0-10.92,3.92,28.13,28.13,0,0,0-6.72,5.43A22.66,22.66,0,0,1,15,25.92,32.29,32.29,0,0,1-.06,29.38Z"/><path class="cls-1" d="M-1.23,35.16q-1,0-2,0l0-.5a33.52,33.52,0,0,0,18.61-4.13,22.35,22.35,0,0,0,6.85-6.07,25.27,25.27,0,0,1,6.9-6.28,30.37,30.37,0,0,1,12.27-4.24c3.58-.6,7-1.17,10.62-4.08,3.84-3.06,6.57-7.55,8.11-13.34l.48.13c-1.57,5.9-4.36,10.48-8.28,13.6-3.75,3-7.2,3.57-10.85,4.18a29.59,29.59,0,0,0-12.09,4.17,24.85,24.85,0,0,0-6.77,6.18,22.79,22.79,0,0,1-7,6.19A33.2,33.2,0,0,1-1.23,35.16Z"/><path class="cls-1" d="M-2.44,44.41l-.11-.49a47.42,47.42,0,0,0,14-5.66A36.17,36.17,0,0,0,22.29,28.14c2.35-3,4.57-5.91,9.26-8.5,5.07-2.8,9.18-3.09,12.8-3.35,3.8-.27,7.38-.53,11.48-3.58,4.73-3.51,8-9.07,9.63-16.52l.49.11c-1.69,7.57-5,13.22-9.82,16.81-4.21,3.13-7.87,3.39-11.74,3.67s-7.62.55-12.59,3.29c-4.59,2.53-6.78,5.36-9.1,8.36a36.61,36.61,0,0,1-11,10.24A47.92,47.92,0,0,1-2.44,44.41Z"/><path class="cls-1" d="M-2.73,49.13l-.1-.49A44.82,44.82,0,0,0,15,41a35.65,35.65,0,0,0,9.57-10.41c2.14-3.23,4.16-6.29,8.79-8.91,5.13-2.9,9.37-3,13.47-3.11s8.06-.21,12.63-3.13c5.3-3.39,9.14-9.09,11.42-16.94l.48.14C69,6.66,65.12,12.45,59.72,15.9,55,18.9,51,19,46.83,19.11c-4,.1-8.22.21-13.24,3-4.53,2.56-6.42,5.43-8.62,8.75a36.07,36.07,0,0,1-9.69,10.54A45.3,45.3,0,0,1-2.73,49.13Z"/><path class="cls-1" d="M-1.61,54.27l-.12-.49a45.74,45.74,0,0,0,18.51-8.84,37.45,37.45,0,0,0,9.13-10.89c2.14-3.52,4-6.56,8.54-9.27,5.15-3.06,9.32-3,13.71-3,4,0,8.1,0,13.11-2.41,7-3.42,12.54-10.11,16.41-19.87l.46.18C74.24,9.56,68.63,16.33,61.5,19.81c-5.12,2.49-9.29,2.48-13.33,2.46-4.34,0-8.43,0-13.46,3-4.44,2.64-6.26,5.63-8.37,9.1a37.88,37.88,0,0,1-9.24,11A46.24,46.24,0,0,1-1.61,54.27Z"/><path class="cls-1" d="M-1.32,60.79l-.15-.48A50.37,50.37,0,0,0,19.68,48a45.36,45.36,0,0,0,8.5-12c2.16-4,4-7.54,8.77-10.28,5.13-3,9.42-2.63,14-2.27,4,.31,8.1.64,13.31-1.09,9-3,16.67-10.79,22.77-23.21l.45.22C81.29,12,73.53,19.84,64.38,22.88c-5.31,1.76-9.48,1.43-13.51,1.11-4.46-.35-8.67-.69-13.67,2.2-4.62,2.67-6.46,6.11-8.58,10.09A45.76,45.76,0,0,1,20,48.37,50.87,50.87,0,0,1-1.32,60.79Z"/><path class="cls-1" d="M-2.41,68.84l-.19-.46C7.63,64.32,15.91,58.46,22,51a59.91,59.91,0,0,0,7.7-12.57c2.42-4.94,4.33-8.84,9.46-11.66s9.61-2.3,14.64-1.6a38.15,38.15,0,0,0,12.8.19c11.47-2,22.06-10.93,31.5-26.41l.43.26C89,14.76,78.32,23.73,66.71,25.8a39,39,0,0,1-13-.18c-4.94-.68-9.21-1.27-14.33,1.54s-6.87,6.58-9.25,11.44a60.31,60.31,0,0,1-7.76,12.66C16.24,58.84,7.89,64.75-2.41,68.84Z"/><path class="cls-1" d="M-2,79.24l-.27-.42C9,71.78,18,63.21,24.37,53.34a96.86,96.86,0,0,0,6.45-11.9c2.89-6.07,5-10.46,10.6-13.32,5.16-2.64,9.46-2,14.44-1.17A48.43,48.43,0,0,0,69,27.67c11.37-1.11,22.58-7.26,33.32-18.26l.36.35C91.86,20.85,80.54,27,69.05,28.17a48.86,48.86,0,0,1-13.28-.73c-5.09-.81-9.12-1.44-14.13,1.12-5.47,2.79-7.52,7.11-10.37,13.09a97.49,97.49,0,0,1-6.48,12C18.34,63.54,9.35,72.17-2,79.24Z"/><path class="cls-1" d="M-1.1,87.28l-.3-.4A101.31,101.31,0,0,0,26.31,56.82c2.29-3.9,4-7.41,5.42-10.5C35,39.51,37.29,34.6,43.36,31.58c5.22-2.6,9.53-1.92,14.51-1.15a48.5,48.5,0,0,0,13.08.7C82.32,30,93.53,23.88,104.27,12.88l.36.35C93.8,24.32,82.49,30.51,71,31.64a49.08,49.08,0,0,1-13.21-.71c-4.9-.77-9.13-1.43-14.21,1.1-5.91,2.94-8.21,7.79-11.4,14.5-1.47,3.1-3.14,6.62-5.44,10.54A101.82,101.82,0,0,1-1.1,87.28Z"/><path class="cls-1" d="M47,51.61c-3.49,0-6.63-.9-7.66-3.17a5.94,5.94,0,0,1,.34-4.75A14.85,14.85,0,0,1,48.12,36a15.25,15.25,0,0,1,12.43,1.7c1.9,1.23,3,2.73,3.17,4.2h0c.36,3.67-5.4,6.95-8.49,8.17A23.45,23.45,0,0,1,47,51.61ZM52.3,35.86a12.67,12.67,0,0,0-4,.63,14.32,14.32,0,0,0-8.12,7.4,5.47,5.47,0,0,0-.34,4.34c1.58,3.49,9.63,3.62,15.24,1.4,3.45-1.37,8.48-4.54,8.18-7.66h0c-.13-1.32-1.18-2.69-2.95-3.83A15.21,15.21,0,0,0,52.3,35.86Z"/><path class="cls-1" d="M-2.61,93.89l-.33-.37c1.72-1.55,4.38-3.95,7.64-6.9,4-3.66,6.91-6.29,10.83-9.87l4.84-4.42C29,64.38,31.56,62.09,31.66,62,40.88,55.33,51,54.69,59,54.18c7-.44,12.61-.8,14.62-5,.94-2,.49-3.55,0-5.19a8.63,8.63,0,0,1,.13-6.7c1.33-3,3.83-5.65,23.9-12.68,3.88-1.36,7.81-2.67,11.67-3.89l.15.48c-3.86,1.22-7.78,2.53-11.66,3.89C78,32,75.5,34.68,74.26,37.46a8.11,8.11,0,0,0-.11,6.35c.51,1.74,1,3.38,0,5.55-2.13,4.5-7.83,4.86-15,5.31-8,.51-18,1.14-27.13,7.74-.16.13-4.1,3.73-11.25,10.27l-4.84,4.42C11.94,80.7,9.07,83.33,5,87,1.78,89.94-.89,92.34-2.61,93.89Z"/><path class="cls-1" d="M-1.47,100.16l-.38-.32c3-3.66,6.2-7.27,9.45-10.75C19.13,76.75,26.09,69.3,34.69,64.41c10.38-5.9,20.36-6.65,28.39-7.25,7.48-.56,12.88-1,14.65-5.4.92-2.31.29-4.24-.37-6.28-.74-2.26-1.5-4.59,0-7.45,2.85-5.4,10.94-6.95,23.18-9.29,3.54-.68,7.15-1.21,10.72-1.58l.05.5c-3.56.37-7.15.9-10.67,1.57-12.1,2.32-20.1,3.85-22.83,9-1.41,2.67-.71,4.8,0,7.06.66,2,1.35,4.14.36,6.62-1.88,4.72-7.42,5.14-15.08,5.71-8,.6-17.89,1.35-28.18,7.19C26.4,69.7,19.46,77.13,8,89.43,4.72,92.9,1.54,96.51-1.47,100.16Z"/><path class="cls-1" d="M1.16,112.31l-.46-.18A91.66,91.66,0,0,1,11.46,92.26c4.09-5.72,12.6-17.63,26.75-24.89C48.69,62,58.58,61,66.52,60.26c7.62-.74,13.13-1.28,14.73-5.53.93-2.47,0-4.73-.92-6.91-1-2.44-2.07-5-.54-7.75,3.65-6.68,17.6-6.37,23.56-6.24a60,60,0,0,1,11.16,1.3l-.1.49a59.46,59.46,0,0,0-11.07-1.29c-5.86-.13-19.6-.43-23.11,6-1.41,2.58-.45,4.88.57,7.31,1,2.28,1.93,4.63.93,7.28C80,59.44,74.37,60,66.57,60.75s-17.73,1.73-28.12,7.06c-14,7.2-22.51,19-26.58,24.74A91.21,91.21,0,0,0,1.16,112.31Z"/><path class="cls-1" d="M6.53,116.76l-.46-.19A116.79,116.79,0,0,1,16.83,96.71C23.05,87.5,30.1,77.06,41.54,70.34,52,64.2,62.43,63.27,70.83,62.52c7.5-.67,12.92-1.15,14.31-5.2.83-2.42-.31-4.65-1.42-6.79-1.22-2.35-2.48-4.79-1.16-7.49,3.25-6.64,17.8-6.45,26.2-4.76a43,43,0,0,1,10.43,3.54l-.22.45a42.44,42.44,0,0,0-10.31-3.5C99.78,37,86,37.21,83,43.26c-1.21,2.48-.06,4.69,1.15,7s2.36,4.56,1.45,7.19c-1.5,4.35-7.05,4.85-14.74,5.53-8.34.74-18.73,1.67-29.08,7.75C30.45,77.43,23.44,87.82,17.24,97A116.25,116.25,0,0,0,6.53,116.76Z"/><path class="cls-1" d="M18.21,120.77l-.5-.05a63.19,63.19,0,0,1,5.76-20.64C28.9,88.69,37.28,79.24,47.09,73.49c10-5.88,19.71-7.1,27.49-8.09,7.09-.9,12.21-1.54,13.51-5.48.91-2.75-.6-5.3-2.06-7.77s-2.94-5-1.63-7.45c1-1.86,3.33-3.25,6.6-3.91,5.51-1.12,14.27-.05,20.44,4.94a22,22,0,0,1,6.37,8.61l-.46.2a21.48,21.48,0,0,0-6.22-8.42c-6-4.89-14.62-5.94-20-4.84-3.12.63-5.34,1.93-6.26,3.65-1.18,2.21.18,4.52,1.62,7s3.08,5.22,2.1,8.19c-1.4,4.23-6.65,4.9-13.92,5.82-7.74,1-17.37,2.2-27.3,8-9.73,5.71-18,15.07-23.42,26.37A62.67,62.67,0,0,0,18.21,120.77Z"/><path class="cls-1" d="M30.5,121.53a40.64,40.64,0,0,1,.37-17.33s.26-1.06.56-2.05C33.29,96,40.32,83.46,54.88,75.34c9.23-5.15,17.49-6.27,23.52-7.09s10.17-1.38,11.74-5.19c1.36-3.3-.17-6.72-1.52-9.73-1.28-2.86-2.49-5.57-.85-7.55.94-1.14,2.62-1.8,4.84-1.91a22.4,22.4,0,0,1,15.52,6.34A21,21,0,0,1,114,62.37l-.5.07a20.54,20.54,0,0,0-5.67-11.89,21.79,21.79,0,0,0-15.15-6.19c-2.08.1-3.63.7-4.48,1.73-1.44,1.75-.35,4.19.92,7,1.39,3.11,3,6.63,1.53,10.13-1.67,4.07-6.06,4.67-12.13,5.5-6.32.86-14.2,1.93-23.34,7-14.42,8-21.38,20.45-23.22,26.52-.3,1-.55,2-.55,2A40.15,40.15,0,0,0,31,121.43Z"/><path class="cls-1" d="M43.66,121.39A31.77,31.77,0,0,1,41,105.72c1.6-16.59,17-26.67,20.12-28.52,7.23-4.35,13.91-5.54,19.27-6.5,5.76-1,9.93-1.77,11.74-5.8,1.65-3.67.24-7.44-1-10.77-1.06-2.83-2-5.27-.41-6.72,1.05-1,3-1.25,5.38-.79,4.56.87,10.74,4.47,13.53,10.31,2.56,5.34,1.45,10.76.57,13.52l-.48-.15c.86-2.69,1.94-8-.54-13.15-2.72-5.68-8.74-9.18-13.18-10-2.23-.42-4-.18-4.95.66-1.32,1.22-.5,3.41.54,6.18,1.22,3.25,2.74,7.29,1,11.15-1.92,4.27-6.2,5-12.11,6.08-5.32.95-12,2.13-19.1,6.44-3,1.83-18.3,11.8-19.88,28.14a31.28,31.28,0,0,0,2.57,15.43Z"/><path class="cls-1" d="M56,121.79a28.24,28.24,0,0,1-4.2-17.38c1.42-13,12.94-21.18,17.28-24.25a61.8,61.8,0,0,1,15.42-7.69c5.17-1.91,8.9-3.3,10.23-7.37,1.15-3.52-.16-6.89-1.21-9.59-.92-2.37-1.64-4.23-.39-5.33.81-.71,2.26-.88,4.06-.49a14.64,14.64,0,0,1,9.67,7.8c2.84,6.39-1.22,12.69-1.69,13.39l-.41-.28c.46-.67,4.38-6.77,1.65-12.91a14.11,14.11,0,0,0-9.32-7.51c-1.62-.36-2.95-.22-3.62.38-1,.87-.32,2.59.52,4.77,1.08,2.78,2.42,6.24,1.22,9.93C93.83,69.57,90,71,84.71,72.95a61.41,61.41,0,0,0-15.3,7.63c-4.29,3-15.68,11.12-17.07,23.9a27.76,27.76,0,0,0,4.13,17.07Z"/><path class="cls-1" d="M71.5,123.51c-3-2.88-10-10.66-9.24-20.76.61-8.31,6.22-14.09,9.24-17.19,5.68-5.85,11.36-8.5,15.93-10.62C92.28,72.68,95.8,71,97,66.79c1.08-3.91-.54-7.6-1.72-10.3-.94-2.14-1.62-3.69-.59-4.47.74-.56,2.21-.45,3.92.29,3.15,1.36,6.76,4.68,7.22,8.77a9.68,9.68,0,0,1-1.52,6.08l-.43-.26a9.19,9.19,0,0,0,1.45-5.77c-.44-3.89-3.9-7.06-6.92-8.37-1.52-.66-2.83-.79-3.42-.35s-.07,2,.75,3.87c1.21,2.76,2.88,6.54,1.75,10.63-1.24,4.48-5,6.24-9.84,8.48-4.53,2.11-10.16,4.73-15.78,10.52-3,3.06-8.5,8.75-9.1,16.88-.73,9.89,6.11,17.53,9.09,20.36Z"/><path class="cls-1" d="M80.11,120.74a26.58,26.58,0,0,1-8.41-14.58,25.3,25.3,0,0,1,2.25-16.28c3.67-6.82,9.59-9.53,14.81-11.92,4.92-2.25,9.16-4.19,10.45-9,1.14-4.24-.67-8.2-2-11.08-.94-2.06-1.62-3.55-.68-4.2.59-.4,1.63-.3,2.93.3,2.56,1.18,6.54,4.63,7,9.32A10.23,10.23,0,0,1,105.36,69l-.45-.23A9.73,9.73,0,0,0,106,63.36c-.48-4.48-4.3-7.79-6.76-8.92-1.1-.51-2-.64-2.44-.34-.6.41,0,1.81.85,3.58,1.35,3,3.21,7,2,11.42-1.35,5-5.69,7-10.72,9.32s-11,5-14.58,11.7a24.8,24.8,0,0,0-2.2,15.95,26.08,26.08,0,0,0,8.25,14.3Z"/><path class="cls-1" d="M89.31,116.74A18.42,18.42,0,0,1,84.24,112c-4.57-6.4-4.28-15.27-2-21.21,2.41-6.2,6.85-9.19,10.77-11.83s7.33-4.94,8.11-9.79c.65-4.09-1-7.69-2.09-10.06-.84-1.82-1.39-3-.58-3.58.5-.34,1.39-.25,2.51.26,2.32,1.07,6.16,4.45,6.63,8.94a10,10,0,0,1-1.28,5.84l-.44-.24a9.53,9.53,0,0,0,1.22-5.55c-.45-4.29-4.13-7.52-6.35-8.54-.91-.42-1.68-.53-2-.31s.07,1.48.75,3c1.12,2.43,2.81,6.1,2.13,10.35-.81,5.06-4.46,7.52-8.32,10.12s-8.23,5.54-10.58,11.6c-2.26,5.82-2.55,14.48,1.91,20.74a17.94,17.94,0,0,0,4.93,4.66Z"/><path class="cls-1" d="M99.76,116.48a19.73,19.73,0,0,1-6.33-4.5A22.8,22.8,0,0,1,88.37,91C89.82,85.81,93,82.84,96.11,80s6.27-5.83,6.83-11a17,17,0,0,0-1.51-8.76l.46-.2a17.52,17.52,0,0,1,1.55,9c-.58,5.32-3.7,8.21-7,11.27-3,2.83-6.19,5.75-7.6,10.85a22.28,22.28,0,0,0,4.94,20.46A19.24,19.24,0,0,0,100,116Z"/><path class="cls-1" d="M108.61,116.87a30,30,0,0,1-5.46-4.76c-2.48-2.76-8.2-10.1-7.84-18.65.2-4.67,2.1-7.6,4.12-10.71,2.17-3.33,4.4-6.77,4.9-12.77a28.8,28.8,0,0,0-.55-8.4l.49-.1a29.29,29.29,0,0,1,.56,8.55c-.51,6.12-2.78,9.62-5,13-2,3-3.85,5.93-4,10.46-.35,8.37,5.28,15.58,7.71,18.29a29.47,29.47,0,0,0,5.37,4.68Z"/></g></svg>